<?xml version="1.0" standalone="no"?><!DOCTYPE svg PUBLIC "-//W3C//DTD SVG 1.1//EN" "http://www.w3.org/Graphics/SVG/1.1/DTD/svg11.dtd"><svg class="icon" height="512" viewBox="0 0 1024 1024" version="1.1" xmlns="http://www.w3.org/2000/svg"><path d="M65.79712 512c0 246.43072 199.77216 446.19776 446.20288 446.19776S958.19776 758.4256 958.19776 512 758.43072 65.79712 512 65.79712 65.79712 265.56928 65.79712 512z" fill="#F15A29" /><path d="M936.38144 649.92256L678.4 330.24l2.56 230.4-217.36448 17.792-116.71552-27.392-39.04 32-49.8432 96.18432 224.19968 277.99552c237.16352 12.06272 398.44352-138.33728 454.18496-307.29728z" fill="#CC4729" /><path d="M257.9968 600.00256H768v79.22688H257.9968zM295.5776 569.58464c0-9.0368 5.44768-15.32928 17.12128-15.32928h403.15904c7.23968 0 15.32928 5.8368 15.32928 14.85312v30.88896H295.5776v-30.4128z" fill="#FFFFFF" /><path d="M395.81184 376.13568h35.24608v112.82944h-35.24608zM474.16832 268.8256c-2.65216-0.1536-26.99776 0.46592-51.97824 24.66816-26.07104 25.12896-26.22976 55.71584-26.22976 57.04192l35.72224 0.0768c0-0.77312-1.00864-13.38368 15.4112-29.49632 15.55968-15.02208 26.53696-15.55968 27.07968-15.55968-0.23552 0 0.4608-7.08096 0.4608-7.08096l-0.46592-29.64992z" fill="#FFFFFF" /><path d="M708.23424 334.73536c-0.384-1.39776-8.63744-36.34176-36.736-71.28064-16.65024-20.61824-36.73088-37.03808-59.7504-48.86528-28.55936-14.62784-61.55776-22.02112-98.21696-22.02112-35.87072 0-68.55168 7.31648-96.95232 21.94432-22.95808 11.5968-43.19232 27.93984-60.07808 48.32768-28.64128 34.54976-37.89312 69.17632-38.28736 70.5792l-0.47104 1.86368v218.97728h390.87104v-217.8048l-0.37888-1.72032z m-38.82496 211.8144l-308.77696-1.09056-5.29408-0.08192 0.70144-204.34432c2.10432-6.76864 9.03168-27.4688 30.50496-53.07392 26.77248-30.41792 69.72416-55.2448 125.5168-55.2448 57.04704 0 100.77696 23.424 127.31392 53.84704 21.16608 25.91744 28.24704 47.39072 30.03392 53.77024v206.21824z" fill="#FFFFFF" /><path d="M395.88352 376.13568h35.24608v112.82944h-35.24608zM474.24512 268.8256c-2.65216-0.1536-26.99776 0.46592-51.97824 24.66816-26.07104 25.12896-26.22976 55.71584-26.22976 57.04192l35.72224 0.0768c0-0.77312-1.00864-13.38368 15.4112-29.49632 15.55968-15.02208 26.53696-15.55968 27.07968-15.55968-0.23552 0 0.4608-7.08096 0.4608-7.08096l-0.46592-29.64992z" fill="#FFFFFF" /></svg>